<svg width="48" height="48" viewBox="0 0 48 48" fill="none" xmlns="http://www.w3.org/2000/svg">
<path d="M35.308 3.40002L29.744 8.46602C32.3341 9.2484 34.7182 10.5962 36.724 12.412C43.748 18.812 43.748 29.188 36.724 35.588C31.54 40.308 23.528 43.312 12.692 44.6L18.256 39.534C15.6659 38.7516 13.2819 37.4039 11.276 35.588C4.25201 29.188 4.21001 18.85 11.276 12.412C16.46 7.69202 24.474 4.68802 35.31 3.40002H35.308ZM24 16C19.03 16 15 19.58 15 24C15 28.42 19.03 32 24 32C28.97 32 33 28.42 33 24C33 19.58 28.97 16 24 16Z" fill="black"/>
</svg>
