<svg width="25" height="25" viewBox="0 0 25 25" fill="none" xmlns="http://www.w3.org/2000/svg">
<path fill-rule="evenodd" clip-rule="evenodd" d="M12.5 0C5.59688 0 0 5.59688 0 12.5C0 19.4031 5.59688 25 12.5 25C19.4031 25 25 19.4031 25 12.5C25 5.59688 19.4031 0 12.5 0ZM12.5 2.08333C18.2437 2.08333 22.9167 6.75625 22.9167 12.5C22.9167 18.2437 18.2437 22.9167 12.5 22.9167C6.75625 22.9167 2.08333 18.2437 2.08333 12.5C2.08333 6.75625 6.75625 2.08333 12.5 2.08333ZM15.3042 17.5927C15.4719 17.7125 15.6875 17.7417 15.8802 17.6688C16.0729 17.5958 16.2156 17.4313 16.2573 17.2313C16.7104 15.1042 17.8083 9.71979 18.2198 7.78542C18.251 7.63958 18.2 7.48854 18.0854 7.39062C17.9708 7.29375 17.8115 7.26563 17.6698 7.31771C15.4865 8.12604 8.76042 10.649 6.01146 11.6667C5.83646 11.7312 5.72292 11.899 5.72917 12.0833C5.73542 12.2677 5.85938 12.4271 6.0375 12.4802C7.27083 12.849 8.88958 13.3625 8.88958 13.3625C8.88958 13.3625 9.64479 15.6469 10.0396 16.8083C10.0885 16.9531 10.2031 17.0688 10.3531 17.1073C10.5042 17.1469 10.6635 17.1063 10.776 17C11.4094 16.4021 12.3885 15.4781 12.3885 15.4781C12.3885 15.4781 14.249 16.8417 15.3042 17.5927ZM9.56979 13.074L10.4448 15.9583L10.6385 14.1313C10.6385 14.1313 14.0167 11.0844 15.9427 9.34688C16 9.29688 16.0073 9.21146 15.9604 9.15104C15.9135 9.09167 15.8292 9.07708 15.7646 9.11771C13.5323 10.5427 9.56979 13.074 9.56979 13.074Z" fill="white"/>
</svg>
